<?xml version="1.0" encoding="UTF-8" standalone="no"?><!-- Generator: Gravit.io --><svg xmlns="http://www.w3.org/2000/svg" xmlns:xlink="http://www.w3.org/1999/xlink" style="isolation:isolate" viewBox="0 0 2500 460" width="2500pt" height="460pt"><defs><clipPath id="_clipPath_3Wha5mL3SNNVJkI8FxW9bKIgfj465dkp"><rect width="2500" height="460"/></clipPath></defs><g clip-path="url(#_clipPath_3Wha5mL3SNNVJkI8FxW9bKIgfj465dkp)"><path d=" M -2.327 -2.374 L 2504.429 -2.374 L 2504.429 462.904 L -2.327 462.904 L -2.327 -2.374 Z " fill-rule="evenodd" fill="rgb(255,5,0)"/><path d=" M 410.491 115.116 L 376.401 115.116 L 376.401 412.337 L 312.483 412.337 L 156.948 209.928 L 156.948 346.288 L 191.038 346.288 L 191.038 412.337 L 47.221 412.337 L 47.221 346.288 L 81.311 346.288 L 81.311 115.116 L 47.221 115.116 L 47.221 49.067 L 156.948 49.067 L 301.83 237.626 L 301.83 115.116 L 267.74 115.116 L 267.74 49.067 L 411.556 49.067 C 410.491 49.067 410.491 115.116 410.491 115.116 L 410.491 115.116 Z  M 638.467 284.5 C 638.467 289.827 638.467 295.153 638.467 301.545 L 479.736 301.545 C 475.475 352.68 494.65 367.594 523.414 367.594 C 547.916 367.594 566.026 351.614 566.026 326.047 L 634.206 326.047 C 633.14 370.79 609.704 421.925 519.152 421.925 C 429.667 421.925 388.12 356.941 388.12 284.5 C 388.12 219.516 430.732 150.271 518.087 150.271 C 601.181 150.271 638.467 208.863 638.467 284.5 Z  M 1030.5 219.516 L 1007.063 219.516 L 948.472 416.598 L 870.704 416.598 L 834.484 309.002 L 801.459 416.598 L 722.626 416.598 L 657.643 219.516 L 634.206 219.516 L 634.206 152.402 L 771.63 152.402 L 771.63 219.516 L 737.541 219.516 L 773.761 323.916 L 820.635 152.402 L 863.247 152.402 L 920.774 323.916 L 951.668 219.516 L 917.578 219.516 L 917.578 152.402 L 1032.631 152.402 C 1030.5 152.402 1030.5 219.516 1030.5 219.516 L 1030.5 219.516 Z  M 1127.443 221.647 C 1127.443 231.235 1134.9 237.626 1160.468 245.084 L 1197.754 256.802 C 1231.844 268.52 1273.391 293.022 1273.391 339.896 C 1273.391 394.227 1232.909 420.859 1181.774 420.859 C 1141.292 420.859 1110.398 401.684 1101.876 392.096 L 1101.876 414.468 L 1034.762 414.468 L 1034.762 322.851 L 1100.811 322.851 C 1102.941 352.68 1129.574 368.659 1153.011 368.659 C 1172.186 368.659 1181.774 360.137 1181.774 350.549 C 1181.774 338.831 1174.317 331.374 1141.292 320.72 L 1108.268 310.067 C 1075.243 299.414 1037.957 274.912 1037.957 230.169 C 1037.957 175.839 1085.896 149.206 1126.378 149.206 C 1168.99 149.206 1189.231 160.924 1199.884 172.643 L 1199.884 152.402 L 1266.999 152.402 L 1266.999 234.431 L 1197.754 234.431 C 1196.688 212.059 1175.382 202.471 1153.011 202.471 C 1134.9 203.537 1127.443 210.994 1127.443 221.647 L 1127.443 221.647 Z  M 1675.012 219.516 L 1651.575 219.516 L 1592.983 416.598 L 1515.215 416.598 L 1478.995 309.002 L 1445.97 416.598 L 1367.138 416.598 L 1302.154 219.516 L 1278.717 219.516 L 1278.717 152.402 L 1416.142 152.402 L 1416.142 219.516 L 1382.052 219.516 L 1418.272 323.916 L 1464.081 152.402 L 1506.693 152.402 L 1564.22 323.916 L 1595.114 219.516 L 1559.958 219.516 L 1559.958 152.402 L 1675.012 152.402 L 1675.012 219.516 L 1675.012 219.516 Z  M 1917.902 284.5 C 1917.902 289.827 1917.902 295.153 1917.902 301.545 L 1760.236 301.545 C 1755.975 352.68 1775.151 367.594 1803.914 367.594 C 1828.416 367.594 1846.526 351.614 1846.526 326.047 L 1914.706 326.047 C 1913.641 370.79 1889.139 421.925 1799.653 421.925 C 1709.102 421.925 1667.555 356.941 1667.555 284.5 C 1667.555 219.516 1711.232 150.271 1798.587 150.271 C 1881.681 150.271 1917.902 207.798 1917.902 284.5 Z  M 2177.837 283.435 C 2177.837 288.761 2177.837 294.088 2177.837 300.48 L 2020.171 300.48 C 2015.91 351.614 2035.086 366.529 2063.849 366.529 C 2088.351 366.529 2106.461 350.549 2106.461 324.982 L 2174.641 324.982 C 2173.576 369.725 2149.074 420.859 2059.588 420.859 C 1969.037 420.859 1927.49 355.876 1927.49 283.435 C 1927.49 218.451 1971.167 149.206 2058.523 149.206 C 2141.617 149.206 2177.837 206.733 2177.837 283.435 Z  M 2464.405 415.533 L 2385.572 415.533 L 2303.543 307.937 L 2276.911 328.178 L 2276.911 349.484 L 2300.347 349.484 L 2300.347 416.598 L 2177.837 416.598 L 2177.837 350.549 L 2201.274 350.549 L 2201.274 116.181 L 2167.184 116.181 L 2167.184 49.067 L 2276.911 49.067 L 2276.911 259.998 L 2332.307 219.516 L 2298.217 219.516 L 2298.217 152.402 L 2444.164 152.402 L 2444.164 219.516 L 2420.727 219.516 L 2363.201 262.129 L 2429.25 348.419 L 2463.34 348.419 C 2464.405 349.484 2464.405 415.533 2464.405 415.533 L 2464.405 415.533 Z  M 2020.171 257.867 L 2106.461 257.867 C 2106.461 220.582 2081.959 205.667 2064.914 205.667 C 2043.608 205.667 2021.237 222.712 2020.171 257.867 Z  M 1760.236 257.867 L 1846.526 257.867 C 1846.526 220.582 1822.024 205.667 1803.914 205.667 C 1783.673 206.733 1761.302 223.777 1760.236 257.867 L 1760.236 257.867 L 1760.236 257.867 Z  M 480.801 258.933 L 567.091 258.933 C 567.091 221.647 542.589 206.733 524.479 206.733 C 503.173 206.733 481.867 223.777 480.801 258.933 L 480.801 258.933 Z " fill="rgb(255,255,255)"/></g></svg>